<?xml version="1.0" encoding="utf-8"?>
<!-- Generator: Adobe Illustrator 19.0.1, SVG Export Plug-In . SVG Version: 6.00 Build 0)  -->
<svg version="1.1" id="Слой_1" xmlns="http://www.w3.org/2000/svg" xmlns:xlink="http://www.w3.org/1999/xlink" x="0px" y="0px"
	 viewBox="0 0 68 68" style="enable-background:new 0 0 68 68;" xml:space="preserve">
<style type="text/css">
	.st0{fill:#181818;}
</style>
<g>
	<path class="st0" d="M34,0C15.2,0,0,15.2,0,34s15.2,34,34,34s34-15.2,34-34S52.8,0,34,0z M34,66C16.4,66,2,51.6,2,34S16.4,2,34,2
		s32,14.4,32,32S51.6,66,34,66z"/>
	<path class="st0" d="M27.3,25.7c0.4-0.4,0.4-1,0-1.4c-0.4-0.4-1-0.4-1.4,0L16,34.5l9.9,10.2c0.4,0.4,1,0.4,1.4,0
		c0.4-0.4,0.4-1,0-1.4l-8.1-8.4H52v-1.8H20.1L27.3,25.7z"/>
</g>
</svg>
